<svg xmlns="http://www.w3.org/2000/svg" xmlns:xlink="http://www.w3.org/1999/xlink" width="960" height="581.04"><rect width="960" height="581.04" rx="5" ry="5" class="a"/><svg y="0%" x="0%"><circle cx="20" cy="20" r="6" fill="#ff5f58"/><circle cx="40" cy="20" r="6" fill="#ffbd2e"/><circle cx="60" cy="20" r="6" fill="#18c132"/></svg><svg height="521.04" viewBox="0 0 92 52.104" width="920" x="15" xmlns="http://www.w3.org/2000/svg" xmlns:xlink="http://www.w3.org/1999/xlink" y="50"><style>@keyframes n{0%{transform:translateX(0)}5.6%{transform:translateX(-92px)}10.6%{transform:translateX(-184px)}10.9%{transform:translateX(-276px)}11.2%{transform:translateX(-368px)}11.5%{transform:translateX(-460px)}11.9%{transform:translateX(-552px)}12.2%{transform:translateX(-644px)}12.5%{transform:translateX(-736px)}12.8%{transform:translateX(-828px)}13.1%{transform:translateX(-920px)}13.4%{transform:translateX(-1012px)}13.7%{transform:translateX(-1104px)}14%{transform:translateX(-1196px)}14.4%{transform:translateX(-1288px)}14.7%{transform:translateX(-1380px)}15%{transform:translateX(-1472px)}15.3%{transform:translateX(-1564px)}15.6%{transform:translateX(-1656px)}15.9%{transform:translateX(-1748px)}16.2%{transform:translateX(-1840px)}16.5%{transform:translateX(-1932px)}16.9%{transform:translateX(-2024px)}17.2%{transform:translateX(-2116px)}17.5%{transform:translateX(-2208px)}17.8%{transform:translateX(-2300px)}18.1%{transform:translateX(-2392px)}18.4%{transform:translateX(-2484px)}18.7%{transform:translateX(-2576px)}19%{transform:translateX(-2668px)}19.4%{transform:translateX(-2760px)}19.7%{transform:translateX(-2852px)}20%{transform:translateX(-2944px)}23.9%{transform:translateX(-3036px)}24.6%{transform:translateX(-3128px)}25.2%{transform:translateX(-3220px)}33%{transform:translateX(-3312px)}34.4%{transform:translateX(-3404px)}35.7%{transform:translateX(-3496px)}37.1%{transform:translateX(-3588px)}38.4%{transform:translateX(-3680px)}39.7%{transform:translateX(-3772px)}41.7%{transform:translateX(-3864px)}42.4%{transform:translateX(-3956px)}50.2%{transform:translateX(-4048px)}53.7%{transform:translateX(-4232px)}55%{transform:translateX(-4324px)}56.4%{transform:translateX(-4416px)}57.7%{transform:translateX(-4508px)}59.7%{transform:translateX(-4600px)}62.6%{transform:translateX(-4692px)}73.8%{transform:translateX(-4876px)}75.4%{transform:translateX(-4968px)}77.7%{transform:translateX(-5060px)}to{transform:translateX(-5152px)}}.a{fill:#0b1124}.f,.g,.h,.j,.k{fill:#5f87af;white-space:pre}.g,.h,.j,.k{fill:#5ad6a0}.h,.j,.k{fill:#eaf2ff}.j,.k{fill:#afd7ff}.k{fill:#eaf2ff;font-weight:700}@media(prefers-reduced-motion:reduce){.iro-cast-scroll{animation:none!important;transform:translateX(-5152px)!important}}</style><g font-family="Monaco,Consolas,Menlo,'Bitstream Vera Sans Mono','Powerline Symbols',monospace" font-size="1.67"><defs><symbol id="1"><text y="1.67" class="f">#</text><text x="2.004" y="1.67" class="f">hello-ironclaw</text><text x="17.034" y="1.67" class="f">—</text><text x="19.038" y="1.67" class="f">the</text><text x="23.046" y="1.67" class="f">canonical</text><text x="33.066" y="1.67" class="f">&quot;it</text><text x="37.074" y="1.67" class="f">works&quot;,</text><text x="45.09" y="1.67" class="f">zero</text><text x="50.1" y="1.67" class="f">credentials.</text><text x="63.126" y="1.67" class="f">One</text><text x="67.134" y="1.67" class="f">command.</text></symbol><symbol id="2"><text y="1.67" class="g">$</text><text x="2.004" y="1.67" class="h">examples/hello-ironclaw/run.sh</text></symbol><symbol id="3"><text y="1.67" class="f">==&gt;</text><text x="4.008" y="1.67" class="f">building</text><text x="13.026" y="1.67" class="f">the</text><text x="17.034" y="1.67" class="f">sandbox</text><text x="25.05" y="1.67" class="f">image</text><text x="31.062" y="1.67" class="f">(ironclaw-sandbox:latest)</text></symbol><symbol id="4"><text y="1.67" class="f">==&gt;</text><text x="4.008" y="1.67" class="f">starting</text><text x="13.026" y="1.67" class="f">the</text><text x="17.034" y="1.67" class="f">offline</text><text x="25.05" y="1.67" class="f">demo</text><text x="30.06" y="1.67" class="f">control-plane</text><text x="44.088" y="1.67" class="f">(docker</text><text x="52.104" y="1.67" class="f">compose</text><text x="60.12" y="1.67" class="f">up)</text></symbol><symbol id="5"><text y="1.67" class="f">==&gt;</text><text x="4.008" y="1.67" class="f">waiting</text><text x="12.024" y="1.67" class="f">for</text><text x="16.032" y="1.67" class="f">the</text><text x="20.04" y="1.67" class="f">control-plane</text><text x="34.068" y="1.67" class="f">to</text><text x="37.074" y="1.67" class="f">be</text><text x="40.08" y="1.67" class="f">ready</text><text x="46.092" y="1.67" class="f">(up</text><text x="50.1" y="1.67" class="f">to</text><text x="53.106" y="1.67" class="f">90s)</text><text x="57.114" y="1.67" class="h">.....</text></symbol><symbol id="6"><text x="1.002" y="1.67" class="g">✔</text><text x="3.006" y="1.67" class="h">control-plane</text><text x="17.034" y="1.67" class="h">ready</text><text x="23.046" y="1.67" class="h">at</text><text x="26.052" y="1.67" style="white-space:pre" fill="#87afd7">http://127.0.0.1:8787</text><text x="49.098" y="1.67" class="f">·</text><text x="51.102" y="1.67" class="f">offline</text><text x="59.118" y="1.67" class="f">mock-agent,</text><text x="71.142" y="1.67" class="f">zero</text><text x="76.152" y="1.67" class="f">credentials</text></symbol><symbol id="7"><text y="1.67" class="f">#</text><text x="2.004" y="1.67" class="f">send</text><text x="7.014" y="1.67" class="f">a</text><text x="9.018" y="1.67" class="f">chat</text><text x="14.028" y="1.67" class="f">through</text><text x="22.044" y="1.67" class="f">the</text><text x="26.052" y="1.67" class="f">REAL</text><text x="31.062" y="1.67" class="f">secured</text><text x="39.078" y="1.67" class="f">path</text><text x="44.088" y="1.67" class="f">and</text><text x="48.096" y="1.67" class="f">assert</text><text x="55.11" y="1.67" class="f">the</text><text x="59.118" y="1.67" class="f">reply</text><text x="65.13" y="1.67" class="f">comes</text><text x="71.142" y="1.67" class="f">back</text></symbol><symbol id="8"><text y="1.67" class="f">==&gt;</text><text x="4.008" y="1.67" class="f">sending</text><text x="12.024" y="1.67" class="f">a</text><text x="14.028" y="1.67" class="f">chat</text><text x="19.038" y="1.67" class="f">message</text><text x="27.054" y="1.67" class="f">to</text><text x="30.06" y="1.67" class="f">&apos;mock-agent&apos;:</text><text x="44.088" y="1.67" class="f">&quot;hello</text><text x="51.102" y="1.67" class="f">from</text><text x="56.112" y="1.67" class="f">hello-ironclaw&quot;</text></symbol><symbol id="9"><text y="1.67" class="f">==&gt;</text><text x="4.008" y="1.67" class="f">waiting</text><text x="12.024" y="1.67" class="f">for</text><text x="16.032" y="1.67" class="f">the</text><text x="20.04" y="1.67" class="f">reply</text><text x="26.052" y="1.67" class="f">(real</text><text x="32.064" y="1.67" class="f">sandbox</text><text x="40.08" y="1.67" class="f">launch</text><text x="47.094" y="1.67" class="f">+</text><text x="49.098" y="1.67" class="f">encrypted</text><text x="59.118" y="1.67" class="f">queue</text><text x="65.13" y="1.67" class="f">round-trip)</text><text x="76.152" y="1.67" class="h">...</text></symbol><symbol id="10"><text x="4.008" y="1.67" class="f">agent</text><text x="10.02" y="1.67" class="f">replied:</text><text x="19.038" y="1.67" class="j">mock-agent</text><text x="30.06" y="1.67" class="j">received:</text><text x="40.08" y="1.67" class="j">[chat</text><text x="46.092" y="1.67" class="j">via</text><text x="50.1" y="1.67" class="j">webchat</text><text x="58.116" y="1.67" class="j">mock-agent]</text><text x="70.14" y="1.67" class="j">hello</text><text x="76.152" y="1.67" class="j">from</text><text x="81.162" y="1.67" class="j">hello-ironc</text></symbol><symbol id="11"><text y="1.67" class="j">law</text></symbol><symbol id="12"><text y="1.67" class="g">PASS</text><text x="5.01" y="1.67" class="g">✅</text><text x="8.016" y="1.67" class="k">IronClaw</text><text x="17.034" y="1.67" class="k">is</text><text x="20.04" y="1.67" class="k">working</text><text x="28.056" y="1.67" class="k">end-to-end</text><text x="39.078" y="1.67" class="k">with</text><text x="44.088" y="1.67" class="k">zero</text><text x="49.098" y="1.67" class="k">credentials.</text></symbol><symbol id="13"><text x="9.018" y="1.67" class="f">message</text><text x="17.034" y="1.67" class="f">→</text><text x="19.038" y="1.67" class="f">engage</text><text x="26.052" y="1.67" class="f">→</text><text x="28.056" y="1.67" class="f">sandboxed</text><text x="38.076" y="1.67" class="f">mock-agent</text><text x="49.098" y="1.67" class="f">→</text><text x="51.102" y="1.67" class="f">encrypted</text><text x="61.122" y="1.67" class="f">queue</text><text x="67.134" y="1.67" class="f">→</text><text x="69.138" y="1.67" class="f">reply.</text></symbol><symbol id="14"><text x="9.018" y="1.67" class="f">production</text><text x="20.04" y="1.67" class="f">seals</text><text x="26.052" y="1.67" class="f">each</text><text x="31.062" y="1.67" class="f">sandbox</text><text x="39.078" y="1.67" class="f">with</text><text x="44.088" y="1.67" class="f">gVisor</text><text x="51.102" y="1.67" class="f">+</text><text x="53.106" y="1.67" class="f">network=none.</text></symbol><symbol id="a"><path fill="transparent" d="M0 0h92v25H0z"/></symbol><symbol id="b"><path fill="#63a0ff" d="M0 0h1.102v2.171H0z"/></symbol></defs><path class="a" d="M0 0h92v52.104H0z"/><g class="iro-cast-scroll" style="animation-duration:8.96s;animation-iteration-count:infinite;animation-name:n;animation-timing-function:steps(1,end)"><svg width="5244"><svg><use xlink:href="#a"/><use xlink:href="#b" x="-.004"/></svg><svg x="92"><use xlink:href="#a"/><use xlink:href="#b" x="-.004" y="2.146"/><use xlink:href="#1"/></svg><svg x="184"><use xlink:href="#a"/><use xlink:href="#b" x="1.996" y="2.146"/><use xlink:href="#1"/><text y="3.841" class="g">$</text></svg><svg x="276"><use xlink:href="#a"/><use xlink:href="#b" x="2.996" y="2.146"/><use xlink:href="#1"/><text y="3.841" class="g">$</text><text x="2.004" y="3.841" class="h">e</text></svg><svg x="368"><use xlink:href="#a"/><use xlink:href="#b" x="3.996" y="2.146"/><use xlink:href="#1"/><text y="3.841" class="g">$</text><text x="2.004" y="3.841" class="h">ex</text></svg><svg x="460"><use xlink:href="#a"/><use xlink:href="#b" x="4.996" y="2.146"/><use xlink:href="#1"/><text y="3.841" class="g">$</text><text x="2.004" y="3.841" class="h">exa</text></svg><svg x="552"><use xlink:href="#a"/><use xlink:href="#b" x="5.996" y="2.146"/><use xlink:href="#1"/><text y="3.841" class="g">$</text><text x="2.004" y="3.841" class="h">exam</text></svg><svg x="644"><use xlink:href="#a"/><use xlink:href="#b" x="6.996" y="2.146"/><use xlink:href="#1"/><text y="3.841" class="g">$</text><text x="2.004" y="3.841" class="h">examp</text></svg><svg x="736"><use xlink:href="#a"/><use xlink:href="#b" x="7.996" y="2.146"/><use xlink:href="#1"/><text y="3.841" class="g">$</text><text x="2.004" y="3.841" class="h">exampl</text></svg><svg x="828"><use xlink:href="#a"/><use xlink:href="#b" x="8.996" y="2.146"/><use xlink:href="#1"/><text y="3.841" class="g">$</text><text x="2.004" y="3.841" class="h">example</text></svg><svg x="920"><use xlink:href="#a"/><use xlink:href="#b" x="9.996" y="2.146"/><use xlink:href="#1"/><text y="3.841" class="g">$</text><text x="2.004" y="3.841" class="h">examples</text></svg><svg x="1012"><use xlink:href="#a"/><use xlink:href="#b" x="10.996" y="2.146"/><use xlink:href="#1"/><text y="3.841" class="g">$</text><text x="2.004" y="3.841" class="h">examples/</text></svg><svg x="1104"><use xlink:href="#a"/><use xlink:href="#b" x="11.996" y="2.146"/><use xlink:href="#1"/><text y="3.841" class="g">$</text><text x="2.004" y="3.841" class="h">examples/h</text></svg><svg x="1196"><use xlink:href="#a"/><use xlink:href="#b" x="12.996" y="2.146"/><use xlink:href="#1"/><text y="3.841" class="g">$</text><text x="2.004" y="3.841" class="h">examples/he</text></svg><svg x="1288"><use xlink:href="#a"/><use xlink:href="#b" x="13.996" y="2.146"/><use xlink:href="#1"/><text y="3.841" class="g">$</text><text x="2.004" y="3.841" class="h">examples/hel</text></svg><svg x="1380"><use xlink:href="#a"/><use xlink:href="#b" x="14.996" y="2.146"/><use xlink:href="#1"/><text y="3.841" class="g">$</text><text x="2.004" y="3.841" class="h">examples/hell</text></svg><svg x="1472"><use xlink:href="#a"/><use xlink:href="#b" x="15.996" y="2.146"/><use xlink:href="#1"/><text y="3.841" class="g">$</text><text x="2.004" y="3.841" class="h">examples/hello</text></svg><svg x="1564"><use xlink:href="#a"/><use xlink:href="#b" x="16.996" y="2.146"/><use xlink:href="#1"/><text y="3.841" class="g">$</text><text x="2.004" y="3.841" class="h">examples/hello-</text></svg><svg x="1656"><use xlink:href="#a"/><use xlink:href="#b" x="17.996" y="2.146"/><use xlink:href="#1"/><text y="3.841" class="g">$</text><text x="2.004" y="3.841" class="h">examples/hello-i</text></svg><svg x="1748"><use xlink:href="#a"/><use xlink:href="#b" x="18.996" y="2.146"/><use xlink:href="#1"/><text y="3.841" class="g">$</text><text x="2.004" y="3.841" class="h">examples/hello-ir</text></svg><svg x="1840"><use xlink:href="#a"/><use xlink:href="#b" x="19.996" y="2.146"/><use xlink:href="#1"/><text y="3.841" class="g">$</text><text x="2.004" y="3.841" class="h">examples/hello-iro</text></svg><svg x="1932"><use xlink:href="#a"/><use xlink:href="#b" x="20.996" y="2.146"/><use xlink:href="#1"/><text y="3.841" class="g">$</text><text x="2.004" y="3.841" class="h">examples/hello-iron</text></svg><svg x="2024"><use xlink:href="#a"/><use xlink:href="#b" x="21.996" y="2.146"/><use xlink:href="#1"/><text y="3.841" class="g">$</text><text x="2.004" y="3.841" class="h">examples/hello-ironc</text></svg><svg x="2116"><use xlink:href="#a"/><use xlink:href="#b" x="22.996" y="2.146"/><use xlink:href="#1"/><text y="3.841" class="g">$</text><text x="2.004" y="3.841" class="h">examples/hello-ironcl</text></svg><svg x="2208"><use xlink:href="#a"/><use xlink:href="#b" x="23.996" y="2.146"/><use xlink:href="#1"/><text y="3.841" class="g">$</text><text x="2.004" y="3.841" class="h">examples/hello-ironcla</text></svg><svg x="2300"><use xlink:href="#a"/><use xlink:href="#b" x="24.996" y="2.146"/><use xlink:href="#1"/><text y="3.841" class="g">$</text><text x="2.004" y="3.841" class="h">examples/hello-ironclaw</text></svg><svg x="2392"><use xlink:href="#a"/><use xlink:href="#b" x="25.996" y="2.146"/><use xlink:href="#1"/><text y="3.841" class="g">$</text><text x="2.004" y="3.841" class="h">examples/hello-ironclaw/</text></svg><svg x="2484"><use xlink:href="#a"/><use xlink:href="#b" x="26.996" y="2.146"/><use xlink:href="#1"/><text y="3.841" class="g">$</text><text x="2.004" y="3.841" class="h">examples/hello-ironclaw/r</text></svg><svg x="2576"><use xlink:href="#a"/><use xlink:href="#b" x="27.996" y="2.146"/><use xlink:href="#1"/><text y="3.841" class="g">$</text><text x="2.004" y="3.841" class="h">examples/hello-ironclaw/ru</text></svg><svg x="2668"><use xlink:href="#a"/><use xlink:href="#b" x="28.996" y="2.146"/><use xlink:href="#1"/><text y="3.841" class="g">$</text><text x="2.004" y="3.841" class="h">examples/hello-ironclaw/run</text></svg><svg x="2760"><use xlink:href="#a"/><use xlink:href="#b" x="29.996" y="2.146"/><use xlink:href="#1"/><text y="3.841" class="g">$</text><text x="2.004" y="3.841" class="h">examples/hello-ironclaw/run.</text></svg><svg x="2852"><use xlink:href="#a"/><use xlink:href="#b" x="30.996" y="2.146"/><use xlink:href="#1"/><text y="3.841" class="g">$</text><text x="2.004" y="3.841" class="h">examples/hello-ironclaw/run.s</text></svg><svg x="2944"><use xlink:href="#a"/><use xlink:href="#b" x="31.996" y="2.146"/><use xlink:href="#1"/><use xlink:href="#2" y="2.171"/></svg><svg x="3036"><use xlink:href="#a"/><use xlink:href="#b" x="-.004" y="4.317"/><use xlink:href="#1"/><use xlink:href="#2" y="2.171"/></svg><svg x="3128"><use xlink:href="#a"/><use xlink:href="#b" x="-.004" y="6.488"/><use xlink:href="#1"/><use xlink:href="#2" y="2.171"/><use xlink:href="#3" y="4.342"/></svg><svg x="3220"><use xlink:href="#a"/><use xlink:href="#b" x="-.004" y="8.659"/><use xlink:href="#1"/><use xlink:href="#2" y="2.171"/><use xlink:href="#3" y="4.342"/><use xlink:href="#4" y="6.513"/></svg><svg x="3312"><use xlink:href="#a"/><use xlink:href="#b" x="56.996" y="8.659"/><use xlink:href="#1"/><use xlink:href="#2" y="2.171"/><use xlink:href="#3" y="4.342"/><use xlink:href="#4" y="6.513"/><text y="10.354" class="f">==&gt;</text><text x="4.008" y="10.354" class="f">waiting</text><text x="12.024" y="10.354" class="f">for</text><text x="16.032" y="10.354" class="f">the</text><text x="20.04" y="10.354" class="f">control-plane</text><text x="34.068" y="10.354" class="f">to</text><text x="37.074" y="10.354" class="f">be</text><text x="40.08" y="10.354" class="f">ready</text><text x="46.092" y="10.354" class="f">(up</text><text x="50.1" y="10.354" class="f">to</text><text x="53.106" y="10.354" class="f">90s)</text></svg><svg x="3404"><use xlink:href="#a"/><use xlink:href="#b" x="57.996" y="8.659"/><use xlink:href="#1"/><use xlink:href="#2" y="2.171"/><use xlink:href="#3" y="4.342"/><use xlink:href="#4" y="6.513"/><text y="10.354" class="f">==&gt;</text><text x="4.008" y="10.354" class="f">waiting</text><text x="12.024" y="10.354" class="f">for</text><text x="16.032" y="10.354" class="f">the</text><text x="20.04" y="10.354" class="f">control-plane</text><text x="34.068" y="10.354" class="f">to</text><text x="37.074" y="10.354" class="f">be</text><text x="40.08" y="10.354" class="f">ready</text><text x="46.092" y="10.354" class="f">(up</text><text x="50.1" y="10.354" class="f">to</text><text x="53.106" y="10.354" class="f">90s)</text><text x="57.114" y="10.354" class="h">.</text></svg><svg x="3496"><use xlink:href="#a"/><use xlink:href="#b" x="58.996" y="8.659"/><use xlink:href="#1"/><use xlink:href="#2" y="2.171"/><use xlink:href="#3" y="4.342"/><use xlink:href="#4" y="6.513"/><text y="10.354" class="f">==&gt;</text><text x="4.008" y="10.354" class="f">waiting</text><text x="12.024" y="10.354" class="f">for</text><text x="16.032" y="10.354" class="f">the</text><text x="20.04" y="10.354" class="f">control-plane</text><text x="34.068" y="10.354" class="f">to</text><text x="37.074" y="10.354" class="f">be</text><text x="40.08" y="10.354" class="f">ready</text><text x="46.092" y="10.354" class="f">(up</text><text x="50.1" y="10.354" class="f">to</text><text x="53.106" y="10.354" class="f">90s)</text><text x="57.114" y="10.354" class="h">..</text></svg><svg x="3588"><use xlink:href="#a"/><use xlink:href="#b" x="59.996" y="8.659"/><use xlink:href="#1"/><use xlink:href="#2" y="2.171"/><use xlink:href="#3" y="4.342"/><use xlink:href="#4" y="6.513"/><text y="10.354" class="f">==&gt;</text><text x="4.008" y="10.354" class="f">waiting</text><text x="12.024" y="10.354" class="f">for</text><text x="16.032" y="10.354" class="f">the</text><text x="20.04" y="10.354" class="f">control-plane</text><text x="34.068" y="10.354" class="f">to</text><text x="37.074" y="10.354" class="f">be</text><text x="40.08" y="10.354" class="f">ready</text><text x="46.092" y="10.354" class="f">(up</text><text x="50.1" y="10.354" class="f">to</text><text x="53.106" y="10.354" class="f">90s)</text><text x="57.114" y="10.354" class="h">...</text></svg><svg x="3680"><use xlink:href="#a"/><use xlink:href="#b" x="60.996" y="8.659"/><use xlink:href="#1"/><use xlink:href="#2" y="2.171"/><use xlink:href="#3" y="4.342"/><use xlink:href="#4" y="6.513"/><text y="10.354" class="f">==&gt;</text><text x="4.008" y="10.354" class="f">waiting</text><text x="12.024" y="10.354" class="f">for</text><text x="16.032" y="10.354" class="f">the</text><text x="20.04" y="10.354" class="f">control-plane</text><text x="34.068" y="10.354" class="f">to</text><text x="37.074" y="10.354" class="f">be</text><text x="40.08" y="10.354" class="f">ready</text><text x="46.092" y="10.354" class="f">(up</text><text x="50.1" y="10.354" class="f">to</text><text x="53.106" y="10.354" class="f">90s)</text><text x="57.114" y="10.354" class="h">....</text></svg><svg x="3772"><use xlink:href="#a"/><use xlink:href="#b" x="61.996" y="8.659"/><use xlink:href="#1"/><use xlink:href="#2" y="2.171"/><use xlink:href="#3" y="4.342"/><use xlink:href="#4" y="6.513"/><use xlink:href="#5" y="8.684"/></svg><svg x="3864"><use xlink:href="#a"/><use xlink:href="#b" x="-.004" y="10.83"/><use xlink:href="#1"/><use xlink:href="#2" y="2.171"/><use xlink:href="#3" y="4.342"/><use xlink:href="#4" y="6.513"/><use xlink:href="#5" y="8.684"/></svg><svg x="3956"><use xlink:href="#a"/><use xlink:href="#b" x="-.004" y="13.001"/><use xlink:href="#1"/><use xlink:href="#2" y="2.171"/><use xlink:href="#3" y="4.342"/><use xlink:href="#4" y="6.513"/><use xlink:href="#5" y="8.684"/><use xlink:href="#6" y="10.855"/></svg><svg x="4048"><use xlink:href="#a"/><use xlink:href="#b" x="-.004" y="15.172"/><use xlink:href="#1"/><use xlink:href="#2" y="2.171"/><use xlink:href="#3" y="4.342"/><use xlink:href="#4" y="6.513"/><use xlink:href="#5" y="8.684"/><use xlink:href="#6" y="10.855"/><use xlink:href="#7" y="13.026"/></svg><svg x="4140"><use xlink:href="#a"/><use xlink:href="#b" x="-.004" y="17.343"/><use xlink:href="#1"/><use xlink:href="#2" y="2.171"/><use xlink:href="#3" y="4.342"/><use xlink:href="#4" y="6.513"/><use xlink:href="#5" y="8.684"/><use xlink:href="#6" y="10.855"/><use xlink:href="#7" y="13.026"/><use xlink:href="#8" y="15.197"/></svg><svg x="4232"><use xlink:href="#a"/><use xlink:href="#b" x="75.996" y="17.343"/><use xlink:href="#1"/><use xlink:href="#2" y="2.171"/><use xlink:href="#3" y="4.342"/><use xlink:href="#4" y="6.513"/><use xlink:href="#5" y="8.684"/><use xlink:href="#6" y="10.855"/><use xlink:href="#7" y="13.026"/><use xlink:href="#8" y="15.197"/><text y="19.038" class="f">==&gt;</text><text x="4.008" y="19.038" class="f">waiting</text><text x="12.024" y="19.038" class="f">for</text><text x="16.032" y="19.038" class="f">the</text><text x="20.04" y="19.038" class="f">reply</text><text x="26.052" y="19.038" class="f">(real</text><text x="32.064" y="19.038" class="f">sandbox</text><text x="40.08" y="19.038" class="f">launch</text><text x="47.094" y="19.038" class="f">+</text><text x="49.098" y="19.038" class="f">encrypted</text><text x="59.118" y="19.038" class="f">queue</text><text x="65.13" y="19.038" class="f">round-trip)</text></svg><svg x="4324"><use xlink:href="#a"/><use xlink:href="#b" x="76.996" y="17.343"/><use xlink:href="#1"/><use xlink:href="#2" y="2.171"/><use xlink:href="#3" y="4.342"/><use xlink:href="#4" y="6.513"/><use xlink:href="#5" y="8.684"/><use xlink:href="#6" y="10.855"/><use xlink:href="#7" y="13.026"/><use xlink:href="#8" y="15.197"/><text y="19.038" class="f">==&gt;</text><text x="4.008" y="19.038" class="f">waiting</text><text x="12.024" y="19.038" class="f">for</text><text x="16.032" y="19.038" class="f">the</text><text x="20.04" y="19.038" class="f">reply</text><text x="26.052" y="19.038" class="f">(real</text><text x="32.064" y="19.038" class="f">sandbox</text><text x="40.08" y="19.038" class="f">launch</text><text x="47.094" y="19.038" class="f">+</text><text x="49.098" y="19.038" class="f">encrypted</text><text x="59.118" y="19.038" class="f">queue</text><text x="65.13" y="19.038" class="f">round-trip)</text><text x="76.152" y="19.038" class="h">.</text></svg><svg x="4416"><use xlink:href="#a"/><use xlink:href="#b" x="77.996" y="17.343"/><use xlink:href="#1"/><use xlink:href="#2" y="2.171"/><use xlink:href="#3" y="4.342"/><use xlink:href="#4" y="6.513"/><use xlink:href="#5" y="8.684"/><use xlink:href="#6" y="10.855"/><use xlink:href="#7" y="13.026"/><use xlink:href="#8" y="15.197"/><text y="19.038" class="f">==&gt;</text><text x="4.008" y="19.038" class="f">waiting</text><text x="12.024" y="19.038" class="f">for</text><text x="16.032" y="19.038" class="f">the</text><text x="20.04" y="19.038" class="f">reply</text><text x="26.052" y="19.038" class="f">(real</text><text x="32.064" y="19.038" class="f">sandbox</text><text x="40.08" y="19.038" class="f">launch</text><text x="47.094" y="19.038" class="f">+</text><text x="49.098" y="19.038" class="f">encrypted</text><text x="59.118" y="19.038" class="f">queue</text><text x="65.13" y="19.038" class="f">round-trip)</text><text x="76.152" y="19.038" class="h">..</text></svg><svg x="4508"><use xlink:href="#a"/><use xlink:href="#b" x="78.996" y="17.343"/><use xlink:href="#1"/><use xlink:href="#2" y="2.171"/><use xlink:href="#3" y="4.342"/><use xlink:href="#4" y="6.513"/><use xlink:href="#5" y="8.684"/><use xlink:href="#6" y="10.855"/><use xlink:href="#7" y="13.026"/><use xlink:href="#8" y="15.197"/><use xlink:href="#9" y="17.368"/></svg><svg x="4600"><use xlink:href="#a"/><use xlink:href="#b" x="-.004" y="19.514"/><use xlink:href="#1"/><use xlink:href="#2" y="2.171"/><use xlink:href="#3" y="4.342"/><use xlink:href="#4" y="6.513"/><use xlink:href="#5" y="8.684"/><use xlink:href="#6" y="10.855"/><use xlink:href="#7" y="13.026"/><use xlink:href="#8" y="15.197"/><use xlink:href="#9" y="17.368"/></svg><svg x="4692"><use xlink:href="#a"/><use xlink:href="#b" x="-.004" y="23.856"/><use xlink:href="#1"/><use xlink:href="#2" y="2.171"/><use xlink:href="#3" y="4.342"/><use xlink:href="#4" y="6.513"/><use xlink:href="#5" y="8.684"/><use xlink:href="#6" y="10.855"/><use xlink:href="#7" y="13.026"/><use xlink:href="#8" y="15.197"/><use xlink:href="#9" y="17.368"/><use xlink:href="#10" y="19.539"/><use xlink:href="#11" y="21.71"/></svg><svg x="4784"><use xlink:href="#a"/><use xlink:href="#b" x="-.004" y="26.027"/><use xlink:href="#1"/><use xlink:href="#2" y="2.171"/><use xlink:href="#3" y="4.342"/><use xlink:href="#4" y="6.513"/><use xlink:href="#5" y="8.684"/><use xlink:href="#6" y="10.855"/><use xlink:href="#7" y="13.026"/><use xlink:href="#8" y="15.197"/><use xlink:href="#9" y="17.368"/><use xlink:href="#10" y="19.539"/><use xlink:href="#11" y="21.71"/></svg><svg x="4876"><use xlink:href="#a"/><use xlink:href="#b" x="-.004" y="28.198"/><use xlink:href="#1"/><use xlink:href="#2" y="2.171"/><use xlink:href="#3" y="4.342"/><use xlink:href="#4" y="6.513"/><use xlink:href="#5" y="8.684"/><use xlink:href="#6" y="10.855"/><use xlink:href="#7" y="13.026"/><use xlink:href="#8" y="15.197"/><use xlink:href="#9" y="17.368"/><use xlink:href="#10" y="19.539"/><use xlink:href="#11" y="21.71"/><use xlink:href="#12" y="26.052"/></svg><svg x="4968"><use xlink:href="#a"/><use xlink:href="#b" x="-.004" y="30.369"/><use xlink:href="#1"/><use xlink:href="#2" y="2.171"/><use xlink:href="#3" y="4.342"/><use xlink:href="#4" y="6.513"/><use xlink:href="#5" y="8.684"/><use xlink:href="#6" y="10.855"/><use xlink:href="#7" y="13.026"/><use xlink:href="#8" y="15.197"/><use xlink:href="#9" y="17.368"/><use xlink:href="#10" y="19.539"/><use xlink:href="#11" y="21.71"/><use xlink:href="#12" y="26.052"/><use xlink:href="#13" y="28.223"/></svg><svg x="5060"><use xlink:href="#a"/><use xlink:href="#b" x="-.004" y="32.54"/><use xlink:href="#1"/><use xlink:href="#2" y="2.171"/><use xlink:href="#3" y="4.342"/><use xlink:href="#4" y="6.513"/><use xlink:href="#5" y="8.684"/><use xlink:href="#6" y="10.855"/><use xlink:href="#7" y="13.026"/><use xlink:href="#8" y="15.197"/><use xlink:href="#9" y="17.368"/><use xlink:href="#10" y="19.539"/><use xlink:href="#11" y="21.71"/><use xlink:href="#12" y="26.052"/><use xlink:href="#13" y="28.223"/><use xlink:href="#14" y="30.394"/></svg><svg x="5152"><use xlink:href="#a"/><use xlink:href="#b" x="-.004" y="32.54"/><use xlink:href="#1"/><use xlink:href="#2" y="2.171"/><use xlink:href="#3" y="4.342"/><use xlink:href="#4" y="6.513"/><use xlink:href="#5" y="8.684"/><use xlink:href="#6" y="10.855"/><use xlink:href="#7" y="13.026"/><use xlink:href="#8" y="15.197"/><use xlink:href="#9" y="17.368"/><use xlink:href="#10" y="19.539"/><use xlink:href="#11" y="21.71"/><use xlink:href="#12" y="26.052"/><use xlink:href="#13" y="28.223"/><use xlink:href="#14" y="30.394"/></svg></svg></g></g></svg></svg>